<?xml version="1.0" encoding="utf-8"?>
<!-- Generator: Adobe Illustrator 19.0.0, SVG Export Plug-In . SVG Version: 6.00 Build 0)  -->
<svg version="1.1" id="layer" xmlns="http://www.w3.org/2000/svg" xmlns:xlink="http://www.w3.org/1999/xlink" x="0px" y="0px"
	 viewBox="-153 -46 652 652" style="enable-background:new -153 -46 652 652;" xml:space="preserve">
<style type="text/css">
	.st0{fill:#007858;}
	.st1{fill:#FFFFFF;}
</style>
<path class="st0" d="M3.4,29.4c0,0-80,0-80,80v340c0,0,0,80,80,80h340c0,0,80,0,80-80v-340c0,0,0-80-80-80H3.4z"/>
<path class="st1" d="M89.8,313.3c-0.2,4.5-3.9,8.1-8.4,8.1H64.6c-4.6,0-8.4-3.8-8.4-8.5v-2.8l0,0V128.9l0,0v-2.8
	c0-4.6,3.7-8.4,8.4-8.5h16.8c4.6,0,8.3,3.7,8.4,8.2v187.2L89.8,313.3z M123.5,319.4c0-0.5,0-1,0-1.4V121.3c0-0.4,0-0.9,0-1.4v-0.6
	l0,0c0.2-6.8-3.3-13.1-9-16.7c-4.6-2.6-9.7-3.9-24.1-4H55.7c-14.5,0-19.7,1.3-24.3,4c-5.6,3.4-8.9,9.5-8.9,16l0,0v1.5
	c0,0.5,0,0.9,0,1.4v196.5c0,0.5,0,0.9,0,1.4v0.8l0,0c-0.2,6.8,3.2,13.1,9,16.7c4.6,2.6,9.7,3.9,24.3,4h34.7c14.4,0,19.5-1.3,24.1-4
	c5.5-3.4,8.9-9.5,8.9-16l0,0V319.4z"/>
<path class="st1" d="M289.2,309.7L289.2,309.7v2.8c0.2,4.8-3.6,8.7-8.3,8.9c-0.1,0-0.2,0-0.3,0h-25.8v-99.7h22.5h3
	c5,0.7,8.8,4.8,9,9.8v77.9V309.7z M289.2,191.9c-0.3,5.1-4.2,9.2-9.2,9.7h-2.5H255V118h25.8c4.7,0.1,8.4,4,8.4,8.7v2.8l0,0
	C289.2,129.5,289.2,191.9,289.2,191.9z M323.7,321.4v-79c0-16.6-13.3-30.1-29.9-30.5l0,0c16.6-0.3,29.9-13.8,29.9-30.4V118
	c1.3-9.3-5.1-17.9-14.4-19.2c-0.9-0.1-1.9-0.2-2.8-0.2h-9.9h-76.3v242.2h77h9.2c9.4,0.2,17.2-7.2,17.4-16.6
	C323.9,323.3,323.9,322.3,323.7,321.4"/>
<polygon class="st1" points="197.5,340.9 204.8,340.9 204.8,321.2 194.1,321.2 190.4,321.2 181.5,321.2 181.5,280.8 181.5,280.8 
	181.5,221.7 181.5,201.9 181.5,201.9 181.5,161.1 181.5,145.8 181.5,118 181.5,118 181.5,98.3 178.4,98.3 147,98.3 147,145.8 
	147,161.1 147,264.8 147,280.8 147,340.9 178.4,340.9 181.5,340.9 190.4,340.9 194.1,340.9 "/>
<path class="st1" d="M275.3,460.4v-21.3l11.5-11.7l19.3,32.9h18.3l-27.9-42.9l26.5-27.4h-18.9l-28.8,31.2v-31.2h-14.2v70.3H275.3z
	 M195,460.4v-45.8l28.3,45.8h14.6v-70.3h-13.3v46.9l-28.8-46.9h-13.8v70.3H195z M120.1,432.7l9.5-26.1l9.7,26.1H120.1z M137.3,390.1
	h-15l-26.7,70.3h15l5.8-15.9h27.9l6.2,15.9h15.4L137.3,390.1z M51.4,429.8c4.2-0.2,8.4,0.1,12.6,1c1.8,0.6,3.3,1.7,4.4,3.2
	c1.1,1.6,1.6,3.5,1.6,5.4c0.1,2.2-0.6,4.3-2,6c-1.4,1.5-3.2,2.5-5.2,2.8c-3.2,0.4-6.5,0.6-9.7,0.4H40v-18.8H51.4z M48.1,401.9
	c6.7,0,10.7,0,12.1,0c2,0.1,3.9,1,5.3,2.5c1.2,1.5,1.9,3.3,1.8,5.2c0.1,2.1-0.7,4.1-2.1,5.5c-1.6,1.5-3.6,2.3-5.7,2.5
	c-3.4,0.2-6.9,0.2-10.3,0H40v-15.7H48.1z M25.7,460.4h24c9,0,14.7-0.1,17.1-0.4c3.4-0.3,6.7-1.5,9.6-3.4c2.6-1.9,4.7-4.5,6.1-7.5
	c1.5-2.9,2.2-6.1,2.2-9.4c0-3.8-1.2-7.6-3.4-10.6c-2.5-3.1-6-5.3-9.9-6.4c3-1.3,5.6-3.4,7.5-6.1c1.8-2.7,2.7-5.8,2.7-9.1
	c0-2.9-0.7-5.7-2.2-8.2c-1.3-2.4-3.2-4.4-5.4-5.9c-2.3-1.5-4.8-2.5-7.5-2.9c-4.1-0.5-8.3-0.8-12.5-0.7H25.7L25.7,460.4z"/>
<rect x="5.9" y="358.7" class="st1" width="335.1" height="14.2"/>
</svg>
